<svg width="63" height="54" viewBox="0 0 63 54" fill="none" xmlns="http://www.w3.org/2000/svg">
<path d="M52.3783 6.75998C52.6143 6.59913 52.8526 6.44228 53.0853 6.27643C53.4115 6.04365 53.7251 5.79222 54.0586 5.57043C54.9375 4.98598 55.8193 4.40553 56.7091 3.83773C57.9843 3.02382 59.2653 2.21825 60.5482 1.417C61.3165 0.937119 62.0938 0.47189 62.8667 0C62.911 0.0219793 62.9553 0.0436257 62.9999 0.065605C62.4519 0.53916 61.906 1.01505 61.3561 1.48627C60.5612 2.16663 59.7632 2.84333 58.967 3.52169C58.955 3.53168 58.9467 3.546 58.9364 3.55832C58.6697 3.78244 58.4034 4.0069 58.1368 4.23102C58.0492 4.30895 57.9617 4.38688 57.8741 4.4648L57.8748 4.46414C57.8255 4.48112 57.765 4.48512 57.729 4.51709C57.4587 4.75786 57.1944 5.00563 56.9251 5.2474C56.8572 5.30834 56.7673 5.34697 56.7064 5.41291C56.6402 5.48484 56.5955 5.57709 56.5416 5.66068C56.3392 5.84484 56.1342 6.02633 55.9348 6.21383C55.4701 6.65041 55.0084 7.09 54.5453 7.52859C54.5174 7.54457 54.4851 7.55556 54.4628 7.57688C54.2547 7.77403 54.0463 7.97151 53.8416 8.17232C53.587 8.42208 53.3353 8.67484 53.0823 8.92661C52.9898 9.01353 52.8929 9.09645 52.8053 9.18836C51.7268 10.3196 50.6489 11.4512 49.5734 12.5852C49.2788 12.8959 48.9872 13.2096 48.7036 13.5303C48.3996 13.8743 48.1077 14.2286 47.8094 14.5776C47.6164 14.8037 47.4213 15.0282 47.2272 15.2533L47.2179 15.257L47.2166 15.267C46.893 15.6566 46.5635 16.0409 46.2476 16.4365C45.696 17.1276 45.1461 17.8202 44.6094 18.5226C44.2276 19.0221 43.8685 19.5393 43.4993 20.0485C43.49 20.0498 43.4866 20.0551 43.4886 20.0641C43.2137 20.4368 42.9344 20.8061 42.6651 21.1828C42.3186 21.6676 41.9823 22.1602 41.6368 22.646C41.523 22.8062 41.3845 22.9488 41.275 23.1116C41.0902 23.3867 40.9168 23.6698 40.7437 23.9528C40.6455 24.1137 40.5576 24.2805 40.4651 24.445C40.3875 24.5423 40.302 24.6345 40.2337 24.7381C40.0653 24.9938 39.9048 25.2549 39.741 25.5137C39.6152 25.7118 39.4897 25.9103 39.3639 26.1085C39.2311 26.3196 39.0986 26.5307 38.9658 26.7422V26.7435C38.8812 26.8707 38.7923 26.995 38.7134 27.1252C38.5294 27.4292 38.3496 27.7363 38.1682 28.0423C38.1615 28.0476 38.1582 28.0546 38.1585 28.0633C37.828 28.6211 37.4971 29.1792 37.1665 29.737C37.1462 29.771 37.1256 29.805 37.1053 29.8386C37.098 29.8443 37.095 29.8516 37.0966 29.8609C36.9185 30.1633 36.7408 30.4657 36.5627 30.7684C36.4805 30.9046 36.3956 31.0392 36.3167 31.1774C35.6293 32.3812 34.9412 33.5851 34.2575 34.7913C34.1277 35.0204 34.0168 35.2602 33.897 35.4953L33.899 35.4943C33.875 35.5229 33.8457 35.5489 33.8284 35.5809C33.4343 36.3112 33.0408 37.0415 32.6487 37.7728C32.4356 38.1701 32.2256 38.5687 31.9962 39.0003C31.8824 38.8581 31.7782 38.7406 31.6876 38.6134C30.952 37.5787 30.22 36.5416 29.4846 35.507C29.3778 35.3564 29.2603 35.2136 29.1474 35.067C29.1328 35.0341 29.1181 35.0014 29.1035 34.9685C29.0928 34.9445 29.0855 34.9178 29.0705 34.8969C28.7556 34.4619 28.4444 34.0243 28.1228 33.5941C27.9287 33.3343 27.7187 33.0869 27.5156 32.8338L27.5166 32.8348C27.4424 32.7406 27.3688 32.6456 27.2936 32.5521C26.9008 32.0629 26.5253 31.5583 26.1102 31.0888C25.3306 30.2063 24.5343 29.3381 23.7314 28.4766C23.4135 28.1356 23.0587 27.8295 22.7204 27.5075C22.6892 27.4702 22.6622 27.4282 22.6262 27.3956C21.6562 26.5147 20.6479 25.6815 19.5344 24.9865C19.2242 24.7927 18.8846 24.6465 18.5584 24.4783C18.4309 24.4124 18.3094 24.3245 18.1739 24.2848C17.9296 24.2129 17.6766 24.1696 17.4273 24.1143C17.2935 24.0874 17.16 24.0604 16.9985 24.0277C17.0515 23.9561 17.0798 23.9165 17.1094 23.8782C17.4263 23.4699 17.7515 23.068 18.0584 22.652C18.6307 21.8761 19.2002 21.0978 19.7555 20.3099C20.3184 19.5113 20.8663 18.7018 21.4122 17.8912C21.4948 17.7686 21.561 17.749 21.6762 17.8269C21.7724 17.8918 21.8789 17.9418 21.9721 18.0104C22.3992 18.3254 22.823 18.6445 23.2481 18.9622C23.2581 18.9698 23.2677 18.9778 23.2777 18.9855C23.3017 19.0081 23.3243 19.0324 23.3493 19.0534C23.8473 19.475 24.3476 19.8933 24.8426 20.3182C25.2144 20.6376 25.5789 20.965 25.9467 21.2887C26.2247 21.5411 26.5027 21.7938 26.7806 22.0463C27.0253 22.2674 27.2696 22.4885 27.5143 22.7097L27.5156 22.7113L28.0569 23.2412C28.2247 23.4067 28.3904 23.5748 28.5612 23.7377C28.8548 24.0178 29.1511 24.2948 29.4463 24.5729L29.4483 24.5746C29.47 24.5962 29.4916 24.6175 29.5132 24.6392L29.5149 24.6408C29.5582 24.6855 29.6015 24.7304 29.6447 24.775C29.956 25.1081 30.2676 25.4414 30.5788 25.7744C30.6657 25.8977 30.7529 26.0212 30.8398 26.1444L30.8391 26.1431C30.8518 26.1627 30.8647 26.1821 30.8774 26.2017C30.942 26.2963 31.0069 26.3909 31.0715 26.4851L31.0698 26.4828C31.2133 26.6726 31.3571 26.8624 31.5005 27.0519C31.7745 27.4315 32.0485 27.8112 32.3374 28.2115C32.5411 27.8885 32.7176 27.5971 32.9056 27.3133C33.6044 26.2586 34.2868 25.1923 35.0145 24.1576C35.7068 23.1729 36.4372 22.2141 37.1709 21.2593C37.803 20.4368 38.4581 19.6315 39.1129 18.8266C39.4345 18.4313 39.7747 18.0504 40.1139 17.6697C40.518 17.2165 40.9304 16.7702 41.3389 16.321C41.3472 16.311 41.3555 16.301 41.3638 16.2907C41.4115 16.2454 41.4611 16.2014 41.507 16.1541C41.9038 15.7419 42.2919 15.3213 42.6974 14.918C43.3056 14.3139 43.9257 13.7218 44.5409 13.1247C44.5475 13.1167 44.5545 13.1083 44.5612 13.1004C44.7393 12.9308 44.9174 12.7613 45.0955 12.5918L45.0941 12.5932C45.1381 12.5615 45.1847 12.5329 45.226 12.4976C46.0968 11.7523 46.9649 11.004 47.8384 10.2617C48.2325 9.927 48.6367 9.60397 49.0374 9.27728C49.3191 9.04749 49.6024 8.82037 49.885 8.59192C49.9143 8.57827 49.9459 8.56828 49.9715 8.5493C50.3676 8.25557 50.7625 7.96018 51.1586 7.66646C51.4648 7.43934 51.7727 7.21455 52.08 6.98876C52.1792 6.91184 52.2784 6.83491 52.3779 6.75798L52.3783 6.75998Z" fill="white"/>
<rect x="0.75" y="4.75" width="48.5" height="48.5" rx="4.25" stroke="white" stroke-width="1.5"/>
</svg>
