<svg width="12" height="12" viewBox="0 0 12 12" fill="none" xmlns="http://www.w3.org/2000/svg">
<path d="M8.2775 0.166016H3.38917C1.26583 0.166016 0 1.43185 0 3.55518V8.43768C0 10.5668 1.26583 11.8327 3.38917 11.8327H8.27167C10.395 11.8327 11.6608 10.5668 11.6608 8.44352V3.55518C11.6667 1.43185 10.4008 0.166016 8.2775 0.166016ZM5.83333 8.26268C4.585 8.26268 3.57 7.24768 3.57 5.99935C3.57 4.75102 4.585 3.73602 5.83333 3.73602C7.08167 3.73602 8.09667 4.75102 8.09667 5.99935C8.09667 7.24768 7.08167 8.26268 5.83333 8.26268ZM9.28667 3.01268C9.2575 3.08268 9.21667 3.14685 9.16417 3.20518C9.10583 3.25768 9.04167 3.29852 8.97167 3.32768C8.90167 3.35685 8.82583 3.37435 8.75 3.37435C8.5925 3.37435 8.44667 3.31602 8.33583 3.20518C8.28333 3.14685 8.2425 3.08268 8.21333 3.01268C8.18417 2.94268 8.16667 2.86685 8.16667 2.79102C8.16667 2.71518 8.18417 2.63935 8.21333 2.56935C8.2425 2.49352 8.28333 2.43518 8.33583 2.37685C8.47 2.24268 8.67417 2.17852 8.86083 2.21935C8.90167 2.22518 8.93667 2.23685 8.97167 2.25435C9.00667 2.26602 9.04167 2.28352 9.07667 2.30685C9.10583 2.32435 9.135 2.35352 9.16417 2.37685C9.21667 2.43518 9.2575 2.49352 9.28667 2.56935C9.31583 2.63935 9.33333 2.71518 9.33333 2.79102C9.33333 2.86685 9.31583 2.94268 9.28667 3.01268Z" fill="url(#paint0_linear_32_1367)"/>
<defs>
<linearGradient id="paint0_linear_32_1367" x1="5.83043" y1="0.166016" x2="5.83043" y2="11.8327" gradientUnits="userSpaceOnUse">
<stop stop-color="#FF594F"/>
<stop offset="1" stop-color="#AA6DDB"/>
</linearGradient>
</defs>
</svg>
