<svg width="13" height="13" viewBox="0 0 13 13" fill="none" xmlns="http://www.w3.org/2000/svg">
<g clip-path="url(#clip0_32_1368)">
<path fill-rule="evenodd" clip-rule="evenodd" d="M13 12.409H10.1268V8.25443C10.1268 7.16698 9.67739 6.42461 8.68909 6.42461C7.93316 6.42461 7.51275 6.92559 7.31708 7.40839C7.2437 7.58169 7.25517 7.82309 7.25517 8.06449V12.409H4.40875C4.40875 12.409 4.44544 5.0496 4.40875 4.38063H7.25517V5.64062C7.42333 5.08971 8.3329 4.30344 9.78439 4.30344C11.5852 4.30344 13 5.45825 13 7.94493V12.409ZM1.53022 3.37642H1.51188C0.594663 3.37642 0 2.76269 0 1.98475C0 1.19168 0.61224 0.59082 1.5478 0.59082C2.4826 0.59082 3.05738 1.19017 3.07573 1.98249C3.07573 2.76043 2.48259 3.37642 1.53022 3.37642ZM0.327896 4.38063H2.86171V12.409H0.327896V4.38063Z" fill="#007EBB"/>
</g>
<defs>
<clipPath id="clip0_32_1368">
<rect width="13" height="13" fill="white"/>
</clipPath>
</defs>
</svg>
