<svg width="28" height="18" viewBox="0 0 28 18" fill="none" xmlns="http://www.w3.org/2000/svg">
<path d="M17.6162 15.2005H10.1153V1.82056H17.6162V15.2005Z" fill="#FF5F00"/>
<path d="M10.5959 8.50939C10.5959 5.79518 11.8762 3.37742 13.8701 1.81937C12.412 0.680039 10.5719 0 8.57206 0C3.83777 0 0 3.80974 0 8.50939C0 13.209 3.83777 17.0187 8.57206 17.0187C10.5719 17.0187 12.412 16.3387 13.8701 15.1993C11.8762 13.6413 10.5959 11.2235 10.5959 8.50939Z" fill="#EB001B"/>
<path d="M27.7324 8.50939C27.7324 13.209 23.8947 17.0187 19.1604 17.0187C17.1605 17.0187 15.3204 16.3387 13.8619 15.1993C15.8562 13.6413 17.1365 11.2235 17.1365 8.50939C17.1365 5.79518 15.8562 3.37742 13.8619 1.81937C15.3204 0.680039 17.1605 0 19.1604 0C23.8947 0 27.7324 3.80974 27.7324 8.50939Z" fill="#F79E1B"/>
</svg>
