<svg width="41" height="11" viewBox="0 0 41 11" fill="none" xmlns="http://www.w3.org/2000/svg">
<path d="M6.77545 0.517771C6.27374 0.172869 5.61906 0 4.81141 0H1.68459C1.437 0 1.30021 0.123828 1.27422 0.371185L0.00398705 8.34466C-0.00921408 8.42297 0.0103785 8.49459 0.0625857 8.5597C0.114494 8.62493 0.179783 8.65737 0.257974 8.65737H1.74319C2.00369 8.65737 2.14687 8.53384 2.17315 8.28612L2.52486 6.13655C2.53771 6.03238 2.58352 5.94767 2.66171 5.88244C2.73985 5.81733 2.83757 5.77474 2.95483 5.75521C3.07208 5.73586 3.18265 5.72612 3.28706 5.72612C3.39118 5.72612 3.51489 5.73269 3.65843 5.74565C3.80161 5.75868 3.89288 5.76501 3.93201 5.76501C5.05237 5.76501 5.93177 5.44932 6.57026 4.81728C7.20846 4.18547 7.52791 3.30936 7.52791 2.18876C7.52791 1.42017 7.27691 0.86321 6.77545 0.517771ZM5.16324 2.91189C5.09789 3.36796 4.92872 3.66746 4.65514 3.81082C4.3815 3.95436 3.99067 4.02569 3.48263 4.02569L2.83769 4.04528L3.16999 1.95418C3.19591 1.811 3.28055 1.73932 3.42397 1.73932H3.7954C4.31627 1.73932 4.69433 1.81441 4.92884 1.96398C5.16324 2.11391 5.24143 2.43002 5.16324 2.91189Z" fill="#5BB0FF"/>
<path d="M39.7732 -0.000244141H38.3271C38.1835 -0.000244141 38.0989 0.0714362 38.0731 0.214737L36.8027 8.34442L36.7831 8.38348C36.7831 8.44895 36.8092 8.51054 36.8615 8.5692C36.9133 8.62774 36.9787 8.65706 37.0568 8.65706H38.3467C38.5939 8.65706 38.7308 8.53354 38.7572 8.28582L40.0274 0.292749V0.273336C40.0273 0.090969 39.9424 -0.000244141 39.7732 -0.000244141Z" fill="#1C69FF"/>
<path d="M22.302 3.14614C22.302 3.08115 22.2758 3.01914 22.224 2.96061C22.1718 2.90201 22.113 2.87256 22.0481 2.87256H20.5433C20.3997 2.87256 20.2825 2.93803 20.1915 3.06795L18.12 6.11675L17.2602 3.18532C17.1948 2.97697 17.0516 2.87256 16.8303 2.87256H15.3644C15.2991 2.87256 15.2405 2.90195 15.1887 2.96061C15.1364 3.01914 15.1105 3.08121 15.1105 3.14614C15.1105 3.17242 15.2375 3.55657 15.4915 4.29918C15.7455 5.0419 16.0191 5.84317 16.3123 6.70315C16.6055 7.5629 16.7584 8.01915 16.7715 8.07093C15.7032 9.53023 15.1691 10.312 15.1691 10.416C15.1691 10.5855 15.2537 10.6701 15.4231 10.6701H16.9279C17.0712 10.6701 17.1884 10.6051 17.2797 10.4748L22.2631 3.28293C22.289 3.257 22.302 3.21161 22.302 3.14614Z" fill="#5BB0FF"/>
<path d="M36.3142 2.87245H34.8288C34.6463 2.87245 34.5359 3.08743 34.4968 3.51739C34.1577 2.99651 33.5393 2.7356 32.6401 2.7356C31.7021 2.7356 30.9039 3.08743 30.2462 3.79097C29.5882 4.49457 29.2593 5.322 29.2593 6.27296C29.2593 7.04179 29.484 7.65406 29.9334 8.10989C30.3829 8.56619 30.9855 8.7939 31.7413 8.7939C32.119 8.7939 32.5033 8.71559 32.8942 8.55938C33.2851 8.40306 33.591 8.19471 33.8128 7.93403C33.8128 7.94711 33.7996 8.00565 33.7737 8.10983C33.7474 8.21424 33.7346 8.29255 33.7346 8.34434C33.7346 8.55305 33.819 8.65699 33.9887 8.65699H35.3372C35.5844 8.65699 35.7279 8.53346 35.767 8.28574L36.5683 3.18515C36.5811 3.10696 36.5616 3.0354 36.5096 2.97017C36.4574 2.90512 36.3924 2.87245 36.3142 2.87245ZM33.7639 6.72239C33.4317 7.04812 33.0311 7.2109 32.5621 7.2109C32.1841 7.2109 31.8782 7.10684 31.6435 6.89825C31.409 6.69014 31.2917 6.40348 31.2917 6.03839C31.2917 5.55663 31.4545 5.14925 31.7803 4.81701C32.1057 4.48477 32.5099 4.31866 32.992 4.31866C33.3565 4.31866 33.6594 4.42618 33.9007 4.6411C34.1415 4.85608 34.2623 5.1526 34.2623 5.53041C34.2623 5.99938 34.0961 6.39685 33.7639 6.72239Z" fill="#1C69FF"/>
<path d="M14.1138 2.87245H12.6285C12.4459 2.87245 12.3354 3.08743 12.2962 3.51739C11.9445 2.99651 11.3256 2.7356 10.4397 2.7356C9.50161 2.7356 8.70351 3.08743 8.04567 3.79097C7.38764 4.49457 7.05881 5.322 7.05881 6.27296C7.05881 7.04179 7.28359 7.65406 7.73308 8.10989C8.18258 8.56619 8.78499 8.7939 9.54074 8.7939C9.90535 8.7939 10.2834 8.71559 10.6742 8.55938C11.065 8.40306 11.3777 8.19471 11.6122 7.93403C11.56 8.09035 11.534 8.2272 11.534 8.34434C11.534 8.55305 11.6187 8.65699 11.7881 8.65699H13.1365C13.3839 8.65699 13.5274 8.53346 13.5665 8.28574L14.3677 3.18515C14.3805 3.10696 14.361 3.0354 14.3091 2.97017C14.2569 2.90512 14.1919 2.87245 14.1138 2.87245ZM11.5634 6.73207C11.2311 7.05165 10.8238 7.2109 10.3421 7.2109C9.96401 7.2109 9.6611 7.10684 9.43328 6.89825C9.20516 6.69014 9.09124 6.40348 9.09124 6.03839C9.09124 5.55663 9.25402 5.14925 9.57986 4.81701C9.90535 4.48477 10.3093 4.31866 10.7915 4.31866C11.1561 4.31866 11.459 4.42618 11.7003 4.6411C11.9411 4.85608 12.0618 5.1526 12.0618 5.53041C12.0618 6.01246 11.8957 6.41321 11.5634 6.73207Z" fill="#5BB0FF"/>
<path d="M28.9758 0.517527C28.4742 0.172625 27.8196 -0.000244141 27.0119 -0.000244141H23.9046C23.6438 -0.000244141 23.5005 0.123584 23.4746 0.37094L22.2044 8.34436C22.1912 8.42267 22.2107 8.49429 22.263 8.5594C22.3147 8.62463 22.3802 8.65706 22.4584 8.65706H24.0608C24.2171 8.65706 24.3213 8.57248 24.3735 8.40308L24.7253 6.13625C24.7382 6.03207 24.7838 5.94737 24.8621 5.88214C24.9403 5.81703 25.0379 5.77444 25.1553 5.75491C25.2725 5.73555 25.383 5.72582 25.4875 5.72582C25.5916 5.72582 25.7153 5.73239 25.8587 5.74535C26.002 5.75837 26.0934 5.7647 26.1323 5.7647C27.2528 5.7647 28.1321 5.44901 28.7706 4.81697C29.409 4.18517 29.7282 3.30906 29.7282 2.18845C29.7282 1.41992 29.4773 0.862966 28.9758 0.517527ZM26.9727 3.73239C26.6861 3.92778 26.2561 4.02544 25.683 4.02544L25.0575 4.04503L25.3898 1.95394C25.4156 1.81076 25.5003 1.73908 25.6438 1.73908H25.9955C26.282 1.73908 26.51 1.7521 26.6797 1.77808C26.8488 1.80437 27.0118 1.88555 27.1682 2.02234C27.3246 2.15918 27.4027 2.35792 27.4027 2.61848C27.4027 3.16564 27.2592 3.53688 26.9727 3.73239Z" fill="#1C69FF"/>
</svg>
