<svg width="32" height="10" viewBox="0 0 32 10" fill="none" xmlns="http://www.w3.org/2000/svg">
<path d="M11.3038 9.69103L12.9222 0.193848H15.5109L13.8913 9.69103H11.3038Z" fill="#FF594F"/>
<path d="M23.2435 0.398882C22.7306 0.206475 21.927 0 20.9234 0C18.3656 0 16.5638 1.28809 16.5484 3.13419C16.534 4.49884 17.8347 5.26012 18.8167 5.71441C19.8243 6.1799 20.163 6.4768 20.1582 6.89247C20.1518 7.52907 19.3536 7.81991 18.6095 7.81991C17.5734 7.81991 17.023 7.67597 16.1729 7.32138L15.8393 7.17041L15.476 9.29648C16.0806 9.56156 17.1986 9.79128 18.3595 9.80316C21.0806 9.80316 22.8471 8.52982 22.8672 6.55845C22.8769 5.4781 22.1873 4.65588 20.6938 3.97809C19.789 3.53875 19.2349 3.24558 19.2407 2.80071C19.2407 2.40595 19.7098 1.98383 20.7232 1.98383C21.5697 1.97068 22.1829 2.15528 22.6606 2.34769L22.8926 2.45728L23.2435 0.398882Z" fill="#FF594F"/>
<path d="M29.9048 0.193848H27.9045C27.2849 0.193848 26.8212 0.362967 26.549 0.981423L22.7045 9.68497H25.4228C25.4228 9.68497 25.8673 8.51471 25.9678 8.25778C26.2649 8.25778 28.9055 8.26186 29.2831 8.26186C29.3605 8.59432 29.598 9.68497 29.598 9.68497H32L29.9048 0.193848ZM26.7312 6.32635C26.9453 5.77916 27.7625 3.67152 27.7625 3.67152C27.7473 3.6968 27.975 3.12166 28.1058 2.76509L28.2808 3.5839C28.2808 3.5839 28.7764 5.85091 28.88 6.3263L26.7312 6.32635Z" fill="#FF594F"/>
<path d="M9.10632 0.193848L6.57196 6.67021L6.30193 5.35408C5.83013 3.83686 4.36016 2.19311 2.7168 1.37016L5.03416 9.67589L7.77302 9.67274L11.8484 0.193848H9.10632Z" fill="#FF594F"/>
<path d="M4.20725 0.193848H0.0330685L3.05176e-05 0.391445C3.2475 1.17756 5.39633 3.07732 6.28831 5.35995L5.38066 0.995637C5.22396 0.394259 4.76948 0.214806 4.20725 0.193848Z" fill="#FF594F"/>
</svg>
